<?xml version="1.0" encoding="UTF-8"?>
<svg id="Camada_1" data-name="Camada 1" xmlns="http://www.w3.org/2000/svg" viewBox="0 0 893.47 335.9">
  <defs>
    <style>
      .cls-1 {
        fill: #672d15;
      }
    </style>
  </defs>
  <path class="cls-1" d="M118.93,15.97c-1.49.05-2.71.57-3.69,1.57-.97.99-1.45,2.18-1.45,3.58v35.85c-.41.09-.83.2-1.24.31-2.81.73-5.53,1.75-8.15,3.01-.25.13-.5.26-.74.39V21.41l-43.02,101.48h-11.03L10.37,30.28l-2.24-5.22v92.54c0,1.44.48,2.66,1.45,3.65.98,1,2.18,1.55,3.62,1.64H0c1.45-.09,2.64-.64,3.59-1.64.99-.99,1.49-2.21,1.49-3.65V21.11c0-1.99-.92-3.5-2.76-4.56-.05-.05-.09-.07-.14-.07h-.08c-.64-.34-1.33-.52-2.09-.52h15.36l43.63,103.05L102.6,15.97h16.33Z"/>
  <path class="cls-1" d="M281.67,125.25c-9.74.35-18.77-1.86-27.07-6.64-4.52-2.88-8.18-6.7-10.96-11.45-2.79-4.75-4.18-9.43-4.18-14.06V23.54c0-1.44-.49-2.66-1.45-3.65-.97-.99-2.17-1.52-3.62-1.57h20.36c-1.44.05-2.65.57-3.62,1.57-.97.99-1.45,2.21-1.45,3.65v25.35h-.07c-.05,14.76-.03,29.5.07,44.22,0,2.78.79,6.04,2.39,9.77,1.59,3.73,3.85,7.06,6.79,9.99,6.51,5.87,14.12,8.97,22.82,9.32,8.95.25,17-2.24,24.16-7.46,3.33-2.68,6.06-6.08,8.2-10.18,2.14-4.1,3.21-7.87,3.21-11.3V23.47c0-1.99-.92-3.5-2.76-4.55-.05-.05-.1-.07-.15-.07h-.07c-.65-.35-1.34-.52-2.09-.52h13.2-.07c-1.39.1-2.56.6-3.5,1.49-.94,1-1.44,2.21-1.49,3.65v69.64c0,4.18-1.21,8.45-3.62,12.83-2.41,4.37-5.51,7.98-9.28,10.81-7.75,5.37-16.33,8.2-25.72,8.5Z"/>
  <path class="cls-1" d="M382.79,15.96c3.63,0,7.21.55,10.74,1.64,3.53,1.09,6.86,2.81,9.99,5.14,3.18,2.34,5.72,5.32,7.61,8.95,1.89,3.68,2.86,7.61,2.91,11.78-.05,4.18-1.02,8.08-2.91,11.71-1.89,3.63-4.43,6.64-7.61,9.02-2.98,2.24-6.19,3.9-9.62,5-.05.05-.7.21-1.94.48-1.24.27-2.73.56-4.47.86-1.74.3-3.28.45-4.62.45h-3.21c3.03,1.69,5.62,3.73,7.76,6.11,4.62,5.12,8.13,10.74,10.51,16.85.9,2.04,1.72,4.1,2.46,6.19,4.41,12.35,12.41,25.11,26.06,28.32,4.01.94,8.34,1.27,12.4.5,3.22-.61,7.46-2.01,8.83-5.3.61-1.48,1.2-4.36,3.45-3.23,1.96.98.92,3.13,0,4.43-2.31,3.23-6.11,5.26-9.73,6.48-5.96,2.02-12.77,1.35-18.63-.68-15.42-5.36-27.84-18.95-34.31-33.56-1.14-2.58-2.19-5.19-3.13-7.83-1.09-3.08-2.34-6.11-3.73-9.1-1.19-2.73-2.93-5.07-5.22-7.01-1.64-1.19-3.41-1.91-5.29-2.16h-19.16v46.75c0,1.39.48,2.59,1.45,3.58.97,1,2.17,1.52,3.62,1.57h-20.36c1.39-.05,2.56-.55,3.5-1.49s1.47-2.11,1.57-3.5V21.18c0-1.44-.49-2.66-1.45-3.65-.97-.99-2.17-1.52-3.62-1.57h46.16ZM398.9,27.45c-1.79-2.54-4.1-4.57-6.93-6.11-2.83-1.49-5.89-2.26-9.17-2.31h-30.87v48.91h30.94c3.48-.15,6.51-.92,9.1-2.31,2.83-1.59,5.15-3.63,6.93-6.11,1.74-2.49,2.98-5.1,3.73-7.83.79-2.73,1.19-5.47,1.19-8.2s-.4-5.47-1.19-8.2c-.75-2.73-1.99-5.34-3.73-7.83Z"/>
  <path class="cls-1" d="M433.99,21.99v96.56c0,1.22-.4,2.27-1.16,3.18,2.13,0,4.3,0,6.49-.03,1.95-.03,3.88-.07,5.79-.12-.3-.41-.7-1.09-.88-2.01-.08-.38-.1-.73-.1-1.02V21.99c0-1.39.48-2.58,1.45-3.58.97-.99,2.17-1.52,3.62-1.57h-20.36c1.44.05,2.66.57,3.65,1.57.99,1,1.49,2.19,1.49,3.58Z"/>
  <path class="cls-1" d="M471.57,32.18c9.94-10.24,21.85-15.46,35.72-15.66,13.82.35,25.65,5.69,35.49,16.03.69.75,1.37,1.49,2.01,2.24.79,1.04,1.04,2.11.75,3.21-.3,1.09-.98,1.88-2.05,2.35-1.07.47-2.35.34-3.84-.41-.65-1.09-1.32-2.16-2.01-3.21-7.41-10.69-17.55-16.43-30.42-17.22-12.93.6-23.12,6.21-30.57,16.85-6.56,10.09-9.84,21.18-9.84,33.26-.05,11.98,3.23,22.99,9.84,33.03,7.41,10.44,17.42,16.18,30.05,17.23,13.12-.1,23.51-5.49,31.17-16.18.6-.94,1.17-1.91,1.71-2.91.6-.89,1.44-1.37,2.54-1.42h.07c1.29.1,2.17.67,2.65,1.72.47,1.04.34,2.09-.41,3.13-.85.94-1.69,1.86-2.54,2.76-9.69,9.99-21.43,15.44-35.19,16.33-14.27-.2-26.25-5.52-35.94-15.96-9.4-10.89-14.09-23.49-14.09-37.8.3-14.32,5.27-26.77,14.91-37.36Z"/>
  <path class="cls-1" d="M560.32,92.8V21.66c0-1.44-.49-2.66-1.45-3.65-.97-.99-2.17-1.52-3.62-1.57h20.36c-1.44.05-2.65.57-3.62,1.57-.97.99-1.45,2.21-1.45,3.65v96.56c0,1.39.48,2.59,1.45,3.58.97,1,2.17,1.52,3.62,1.57h-20.36c1.44-.05,2.65-.57,3.62-1.57.97-.99,1.45-2.19,1.45-3.58v-25.43Z"/>
  <path class="cls-1" d="M590.92,99.36c-1.84-2.93-3.41-5.99-4.7-9.17-2.49-6.51-3.75-13.27-3.8-20.28.05-6.96,1.32-13.69,3.8-20.21,1.29-3.23,2.86-6.31,4.7-9.25,1.84-2.88,3.93-5.57,6.26-8.05,9.89-10.29,21.77-15.61,35.64-15.96,13.82.35,25.7,5.67,35.64,15.96,2.34,2.49,4.42,5.17,6.26,8.05,1.79,2.93,3.33,6.02,4.62,9.25,2.54,6.51,3.8,13.25,3.8,20.21s-1.27,13.77-3.8,20.28c-1.29,3.18-2.83,6.24-4.62,9.17-1.84,2.88-3.93,5.57-6.26,8.05-9.94,10.34-21.82,15.66-35.64,15.96-13.87-.3-25.75-5.62-35.64-15.96-2.34-2.49-4.43-5.17-6.26-8.05ZM594.95,52.61c-1.54,5.67-2.31,11.43-2.31,17.3s.77,11.63,2.31,17.3c.79,2.83,1.79,5.59,2.98,8.28,1.24,2.73,2.71,5.32,4.4,7.75,1.69,2.49,3.6,4.77,5.74,6.86,2.24,2.09,4.65,3.9,7.23,5.44,5.42,3.13,11.26,4.72,17.52,4.77,6.26-.05,12.08-1.64,17.45-4.77,2.63-1.54,5.04-3.36,7.23-5.44,2.19-2.09,4.13-4.37,5.82-6.86,1.69-2.43,3.13-5.02,4.32-7.75,1.24-2.68,2.24-5.44,2.98-8.28,1.54-5.67,2.31-11.43,2.31-17.3s-.77-11.63-2.31-17.3c-.75-2.83-1.74-5.59-2.98-8.28-1.19-2.68-2.64-5.27-4.32-7.75-1.69-2.49-3.63-4.77-5.82-6.86-2.19-2.09-4.6-3.9-7.23-5.44-5.37-3.13-11.18-4.72-17.45-4.77-6.26.05-12.1,1.64-17.52,4.77-2.58,1.54-5,3.36-7.23,5.44-2.14,2.09-4.05,4.37-5.74,6.86-1.69,2.49-3.16,5.07-4.4,7.75-1.19,2.68-2.19,5.44-2.98,8.28Z"/>
  <path class="cls-1" d="M217.75,122.89h21.25c-3.33-.2-5.71-1.81-7.16-4.84L188.67,15.97h-11.12l-21.03,49.73c-3.43-1.64-6.95-3.13-10.51-4.45-5.22-1.94-10.5-4.01-16.25-4.97-2.86-.47-5.82-.57-8.69-.38-2.45.17-4.9.51-7.29,1.06-.41.09-.83.2-1.24.31-2.81.73-5.53,1.75-8.15,3.01-.25.13-.5.26-.74.39-2.32,1.25-4.53,2.74-6.55,4.46-.58.45-1.06,1-1.59,1.51-.52.52-1.09.99-1.53,1.58-.93,1.13-1.9,2.23-2.7,3.47-1.62,2.44-2.91,5.1-3.86,7.86-1.91,5.52-2.29,11.48-1.63,17.13.28,2.82.81,5.71,1.78,8.47.94,2.76,2.42,5.35,4.26,7.61,3.03,3.73,6.94,6.9,11.47,8.6.58.22,1.16.4,1.75.56,2.05.55,3.7.63,5.43.71.85.04,1.98.06,3.31,0,.03-.57.08-1.49.07-2.62,0-1.33-.07-2.31-.08-2.55-.16-3.55,0-7.14,0-10.7v-46.47c2.45-.64,4.98-1.01,7.52-1.22,2.69-.22,5.35-.18,7.99.22,5.3.78,10.5,2.76,15.77,4.57,3.56,1.22,7.07,2.58,10.5,4.11l-21.17,50.07c-1.45,3.03-3.84,4.64-7.16,4.84h13.5c-1.25-.09-2.18-.61-2.8-1.56-.63-.94-.71-2.02-.26-3.21l20.58-48.55,53.31,26.62,9.32,21.92c.39,1.19.28,2.28-.34,3.25s-1.56,1.48-2.8,1.52ZM103.65,117.74c0,.19-.01.38-.04.57-3.88-1.35-7.42-3.76-10.01-6.99-1.64-2.09-2.93-4.44-3.76-6.96-.86-2.53-1.22-5.18-1.39-7.91-.46-5.43.21-10.84,2.01-15.85,1.79-4.99,4.85-9.49,8.81-12.98,1.37-1.18,2.83-2.24,4.38-3.17v53.29ZM159.44,66.74l19.84-46.82,30.42,71.96-50.26-25.13Z"/>
  <polygon class="cls-1" points="450.46 3.95 446.8 0 435.53 12.55 437.41 14.53 450.46 3.95"/>
  <g>
    <path class="cls-1" d="M528.26,228.4c-1.84-2.93-3.41-5.99-4.7-9.17-2.49-6.51-3.75-13.27-3.8-20.28.05-6.96,1.32-13.69,3.8-20.21,1.29-3.23,2.86-6.31,4.7-9.25,1.84-2.88,3.93-5.57,6.26-8.05,9.89-10.29,21.77-15.61,35.64-15.96,13.82.35,25.7,5.67,35.64,15.96,2.34,2.49,4.42,5.17,6.26,8.05,1.79,2.93,3.33,6.02,4.62,9.25,2.54,6.51,3.8,13.25,3.8,20.21s-1.27,13.77-3.8,20.28c-1.29,3.18-2.83,6.24-4.62,9.17-1.84,2.88-3.93,5.57-6.26,8.05-9.94,10.34-21.82,15.66-35.64,15.96-13.87-.3-25.75-5.62-35.64-15.96-2.34-2.49-4.43-5.17-6.26-8.05ZM532.29,181.65c-1.54,5.67-2.31,11.43-2.31,17.3s.77,11.63,2.31,17.3c.79,2.83,1.79,5.59,2.98,8.28,1.24,2.73,2.71,5.32,4.4,7.75,1.69,2.49,3.6,4.77,5.74,6.86,2.24,2.09,4.65,3.9,7.23,5.44,5.42,3.13,11.26,4.72,17.52,4.77,6.26-.05,12.08-1.64,17.45-4.77,2.63-1.54,5.04-3.36,7.23-5.44,2.19-2.09,4.13-4.37,5.82-6.86,1.69-2.43,3.13-5.02,4.32-7.75,1.24-2.68,2.24-5.44,2.98-8.28,1.54-5.67,2.31-11.43,2.31-17.3s-.77-11.63-2.31-17.3c-.75-2.83-1.74-5.59-2.98-8.28-1.19-2.68-2.64-5.27-4.32-7.75-1.69-2.49-3.63-4.77-5.82-6.86-2.19-2.09-4.6-3.9-7.23-5.44-5.37-3.13-11.18-4.72-17.45-4.77-6.26.05-12.1,1.64-17.52,4.77-2.58,1.54-5,3.36-7.23,5.44-2.14,2.09-4.05,4.37-5.74,6.86-1.69,2.49-3.16,5.07-4.4,7.75-1.19,2.68-2.19,5.44-2.98,8.28Z"/>
    <path class="cls-1" d="M164.37,252.64c1.44-.05,2.65-.57,3.62-1.57.97-.99,1.45-2.21,1.45-3.65v-96.49c0-1.44-.49-2.66-1.45-3.65-.97-.99-2.17-1.52-3.62-1.57h40.41c13.77.4,25.58,5.72,35.42,15.96,2.34,2.49,4.42,5.17,6.26,8.05,1.84,2.93,3.38,6.02,4.62,9.25,2.54,6.51,3.8,13.25,3.8,20.21s-1.27,13.77-3.8,20.28c-1.24,3.18-2.78,6.24-4.62,9.17-1.84,2.88-3.93,5.57-6.26,8.05-9.84,10.29-21.65,15.61-35.42,15.96h-40.41ZM204.79,148.77h-25.13v100.81h25.2c6.16-.1,11.88-1.69,17.15-4.77,2.63-1.54,5.05-3.36,7.23-5.44,2.19-2.09,4.13-4.37,5.82-6.86,1.69-2.43,3.13-5.02,4.32-7.75,1.24-2.68,2.24-5.44,2.98-8.28,1.54-5.67,2.31-11.43,2.31-17.3s-.77-11.63-2.31-17.3c-.75-2.83-1.74-5.59-2.98-8.28-1.19-2.68-2.64-5.27-4.32-7.75-1.69-2.49-3.63-4.77-5.82-6.86-2.19-2.09-4.6-3.9-7.23-5.44-5.32-3.08-11.06-4.67-17.22-4.77Z"/>
    <path class="cls-1" d="M351.4,247.8c1.44,3.03,3.83,4.65,7.16,4.85h-21.25c1.24-.05,2.17-.56,2.8-1.53.62-.97.73-2.05.34-3.24l-9.32-21.92-53.31-26.62-20.58,48.54c-.45,1.19-.36,2.26.26,3.21.62.94,1.55,1.47,2.8,1.57h-13.5c3.33-.2,5.72-1.81,7.16-4.85l43.17-102.08h11.11l43.17,102.08ZM278.99,196.5l50.26,25.13-30.42-71.96-19.83,46.83Z"/>
    <path class="cls-1" d="M381.61,145.72h5.07c-1.44.05-2.65.57-3.62,1.57-.97.99-1.45,2.21-1.45,3.65v98.65h37.73c.94,0,2.46-.36,4.55-1.08,2.09-.72,4.24-1.54,6.45-2.46,2.21-.92,4.91-2.12,8.09-3.62v10.22h-72.1c1.44-.05,2.65-.57,3.62-1.57.97-.99,1.45-2.21,1.45-3.65v-96.49c0-1.44-.49-2.66-1.45-3.65-.97-.99-2.17-1.52-3.62-1.57h15.29Z"/>
    <path class="cls-1" d="M597.77,240.26c-1.86,1.08-3.73,2.16-5.59,3.24-1.63-3.07-5.74-9.76-13.81-13.68-5.5-2.67-10.4-3.04-12.93-2.95-11.99.44-24.5,7.07-36.6,13.52-3.89,2.07-7.86,4.17-11.81,6.07-3.3,1.59-6.59,3.04-9.85,4.17-11.63,4.06-24.2,4.9-36.41,3.94-2.4-.19-25.84-1.86-25.85-1.05,0-.04.96.04,2.09-.47.56-.26,1.07-.62,1.53-1.08.96-1,1.44-2.23,1.44-3.67v-96.47c0-1.44-.48-2.66-1.44-3.67-.98-.98-2.18-1.51-3.62-1.55h20.35c-1.44.04-2.64.57-3.6,1.55-.43.44-.76.91-1,1.43-.47,1.01-.46,1.94-.46,2.24,0,16.34-.06,32.67-.08,49.01-.01,8.07-.03,16.13-.04,24.2,0,4.37-.01,8.73-.02,13.1,0,3.23-.85,7.45,1.96,9.83,7.69,6.5,23.74,4,32.86,2.49,4.43-.73,8.07-1.79,11.2-2.9,6.9-2.45,13.87-6.14,21.22-10.07,12.42-6.59,25.26-13.43,38.02-13.89,1.73-.06,7.57.43,14.46,3.25,9.38,3.84,15.18,9.98,17.98,13.41Z"/>
    <path class="cls-1" d="M668.16,145.72c3.63,0,7.21.55,10.74,1.64,3.53,1.09,6.86,2.81,9.99,5.14,3.18,2.34,5.72,5.32,7.61,8.95,1.89,3.68,2.86,7.61,2.91,11.78-.05,4.18-1.02,8.08-2.91,11.71-1.89,3.63-4.43,6.64-7.61,9.02-2.98,2.24-6.19,3.9-9.62,5-.05.05-.7.21-1.94.48-1.24.27-2.73.56-4.47.86-1.74.3-3.28.45-4.62.45h-3.21c3.03,1.69,5.62,3.73,7.76,6.11,4.62,5.12,8.13,10.74,10.51,16.85.9,2.04,1.72,4.1,2.46,6.19,1.29,3.63,2.81,7.18,4.55,10.66,1.14,2.19,2.68,4.2,4.62,6.04,1.94,1.84,4.35,2.96,7.23,3.36l1.42.07c.4,0,.71.12.93.37.22.25.34.55.34.89,0,.4-.12.72-.37.97-.25.25-.55.37-.9.37-.6,0-1.17-.02-1.71-.07-7.16-.75-12.97-3.68-17.45-8.8-4.67-5.42-8.2-11.06-10.59-16.93-1.14-2.58-2.19-5.19-3.13-7.83-1.09-3.08-2.34-6.11-3.73-9.1-1.19-2.73-2.93-5.07-5.22-7.01-1.64-1.19-3.41-1.91-5.29-2.16h-19.16v46.75c0,1.39.48,2.59,1.45,3.58.97,1,2.17,1.52,3.62,1.57h-20.36c1.39-.05,2.56-.55,3.5-1.49s1.47-2.11,1.57-3.5v-96.71c0-1.44-.49-2.66-1.45-3.65-.97-.99-2.17-1.52-3.62-1.57h46.16ZM684.27,157.2c-1.79-2.54-4.1-4.57-6.93-6.11-2.83-1.49-5.89-2.26-9.17-2.31h-30.87v48.91h30.94c3.48-.15,6.51-.92,9.1-2.31,2.83-1.59,5.15-3.63,6.93-6.11,1.74-2.49,2.98-5.1,3.73-7.83.79-2.73,1.19-5.47,1.19-8.2s-.4-5.47-1.19-8.2c-.75-2.73-1.99-5.34-3.73-7.83Z"/>
    <path class="cls-1" d="M746.97,149.41h-27.07c-1,0-2.52.36-4.59,1.08-2.06.72-4.2,1.55-6.41,2.5-2.21.94-4.91,2.14-8.09,3.58v-10.22h102.45v10.22c-3.13-1.44-5.8-2.63-8.02-3.58-2.21-.94-4.36-1.78-6.45-2.5-2.09-.72-3.63-1.08-4.62-1.08h-26.99v98.72c0,1.39.48,2.59,1.45,3.58.97,1,2.17,1.52,3.62,1.57h-20.36c1.44-.05,2.65-.57,3.62-1.57.97-.99,1.45-2.19,1.45-3.58v-98.72Z"/>
    <path class="cls-1" d="M801.23,229.27c-1.84-2.93-3.41-5.99-4.7-9.17-2.49-6.51-3.75-13.27-3.8-20.28.05-6.96,1.32-13.69,3.8-20.21,1.29-3.23,2.86-6.31,4.7-9.25,1.84-2.88,3.93-5.57,6.26-8.05,9.89-10.29,21.77-15.61,35.64-15.96,13.82.35,25.7,5.67,35.64,15.96,2.34,2.49,4.42,5.17,6.26,8.05,1.79,2.93,3.33,6.02,4.62,9.25,2.54,6.51,3.8,13.25,3.8,20.21s-1.27,13.77-3.8,20.28c-1.29,3.18-2.83,6.24-4.62,9.17-1.84,2.88-3.93,5.57-6.26,8.05-9.94,10.34-21.82,15.66-35.64,15.96-13.87-.3-25.75-5.62-35.64-15.96-2.34-2.49-4.43-5.17-6.26-8.05ZM805.26,182.52c-1.54,5.67-2.31,11.43-2.31,17.3s.77,11.63,2.31,17.3c.79,2.83,1.79,5.59,2.98,8.28,1.24,2.73,2.71,5.32,4.4,7.75,1.69,2.49,3.6,4.77,5.74,6.86,2.24,2.09,4.65,3.9,7.23,5.44,5.42,3.13,11.26,4.72,17.52,4.77,6.26-.05,12.08-1.64,17.45-4.77,2.63-1.54,5.04-3.36,7.23-5.44,2.19-2.09,4.13-4.37,5.82-6.86,1.69-2.43,3.13-5.02,4.32-7.75,1.24-2.68,2.24-5.44,2.98-8.28,1.54-5.67,2.31-11.43,2.31-17.3s-.77-11.63-2.31-17.3c-.75-2.83-1.74-5.59-2.98-8.28-1.19-2.68-2.64-5.27-4.32-7.75-1.69-2.49-3.63-4.77-5.82-6.86-2.19-2.09-4.6-3.9-7.23-5.44-5.37-3.13-11.18-4.72-17.45-4.77-6.26.05-12.1,1.64-17.52,4.77-2.58,1.54-5,3.36-7.23,5.44-2.14,2.09-4.05,4.37-5.74,6.86-1.69,2.49-3.16,5.07-4.4,7.75-1.19,2.68-2.19,5.44-2.98,8.28Z"/>
    <path class="cls-1" d="M277.48,199.02c-4.7-2.32-9.54-4.35-14.48-6.06-9.72-3.55-19.68-7.18-29.92-3.9-14.59,3.82-26.68,17.42-27.11,32.65-.32,9.98,4.8,20.01,12.55,26.28,0,0-1.91,2.43-1.91,2.43-8.78-6.7-14.48-17.51-14.26-28.82.49-17.03,13.73-31.67,29.89-35.7,5.31-1.41,11.01-1.72,16.44-.57,5.39,1.18,10.33,3.15,15.29,4.99,5,1.9,9.88,4.1,14.6,6.59l-1.07,2.1h0Z"/>
    <path class="cls-1" d="M505.68,147.94c-.92,2.89-2.15,6.14-3.84,9.59-1.28,2.62-2.62,4.95-3.93,7-1.53-.02-3.06-.03-4.58-.05,1.2-2.3,2.45-5.06,3.54-8.28,1.03-3.05,1.7-5.87,2.14-8.33l6.67.07Z"/>
  </g>
  <g>
    <path class="cls-1" d="M198.98,332.96c2.24-.35,4.32-1.14,6.24-2.36l1.88,1.94c-3.61,2.24-7.54,3.36-11.78,3.36-4,0-7.76-.97-11.28-2.91-3.51-1.94-6.32-4.59-8.42-7.95-2.1-3.36-3.15-6.99-3.15-10.89s1.05-7.54,3.15-10.89c2.1-3.36,4.91-6.01,8.42-7.95,3.51-1.94,7.27-2.91,11.28-2.91,4.79,0,9.13,1.41,13.01,4.24l-2.59,2.65c-2-1.61-4.22-2.77-6.65-3.47-2.44-.71-4.89-.86-7.36-.47-3.18.51-5.87,1.82-8.07,3.92-2.2,2.1-3.7,4.7-4.51,7.8s-.87,6.38-.21,9.83c1.02,5.26,3.41,9.44,7.15,12.54,3.75,3.1,8.04,4.28,12.86,3.53Z"/>
    <path class="cls-1" d="M237.31,293.21v39.45h21.67c-1.49,1.69-2.26,2.55-2.3,2.59h-25.73v-42.04h6.36Z"/>
    <path class="cls-1" d="M284.65,293.15h2.36v42.04h-6.42v-42.04h4.06ZM286.53,279.55h5.3l-.77,1.3-5.12,8.13-.3.41h-3.3l.47-1.18,3.41-8.13.29-.53Z"/>
    <path class="cls-1" d="M346.48,293.27h2.59v41.98h-3.89l-29.68-31.86v31.86h-2.59v-41.98h2.77l30.8,32.97v-32.97Z"/>
    <path class="cls-1" d="M379.04,293.27h2.36v41.98h-6.42v-41.98h4.06Z"/>
    <path class="cls-1" d="M431.74,332.96c2.24-.35,4.32-1.14,6.24-2.36l1.88,1.94c-3.61,2.24-7.54,3.36-11.78,3.36-4,0-7.76-.97-11.27-2.91-3.51-1.94-6.32-4.59-8.42-7.95s-3.15-6.99-3.15-10.89,1.05-7.54,3.15-10.89,4.91-6.01,8.42-7.95c3.51-1.94,7.27-2.91,11.27-2.91,4.79,0,9.13,1.41,13.01,4.24l-2.59,2.65c-2-1.61-4.22-2.77-6.65-3.47s-4.89-.86-7.36-.47c-3.18.51-5.87,1.82-8.07,3.92-2.2,2.1-3.7,4.7-4.5,7.8-.81,3.1-.87,6.38-.21,9.83,1.02,5.26,3.41,9.44,7.15,12.54,3.75,3.1,8.04,4.28,12.87,3.53Z"/>
    <path class="cls-1" d="M498.63,333.78l.53,1.47h-6.95l-.29-.71-2.59-6.77-.65-1.53h-22.14l-.65,1.53-2.71,6.77-.29.71h-2.83l.59-1.47,15.43-38.04.94-2.41h5.65l.3.71,15.66,39.75ZM467.6,323.65h20.08l-.53-1.47-9.42-23.96-10.01,25.03-.12.41Z"/>
    <path class="cls-1" d="M604.38,293.27h5.59v41.98h-5.77v-36.33l-17.67,32.15-18.61-28.38v32.56h-2.59v-41.98h4.59l18.72,28.5,15.72-28.5Z"/>
    <path class="cls-1" d="M642.18,319.77v12.78h22.67l-2.06,2.71h-26.91v-41.98h29.5l-2.59,2.59h-20.61v14.07h22.37l-2.06,2.59h-20.31v3.18h-.06v4.06h.06ZM651.01,289.03c-.67-.04-1.96-.1-3.89-.18-.28-.24-.35-.51-.24-.82l3.48-8.12c.16-.39.45-.59.88-.59h4.36c.35,0,.62.15.79.44.18.3.19.58.03.85l-5.12,8.13c-.04.08-.14.18-.29.3Z"/>
    <path class="cls-1" d="M700.94,293.21c6.91,0,12.44,1.88,16.61,5.62,4.16,3.75,6.24,8.88,6.24,15.4s-2.47,11.7-7.42,16.01c-3.89,3.34-9.03,5-15.43,5h-12.9v-39.71c0-.1,0-.25-.03-.47-.02-.22-.03-.42-.03-.62v-.62c0-.22.02-.42.06-.62h12.9ZM700.94,332.96c10.95,0,16.43-6.24,16.43-18.72,0-3.1-.36-5.82-1.09-8.16s-1.64-4.16-2.74-5.48c-1.1-1.32-2.41-2.37-3.95-3.15s-2.97-1.3-4.33-1.56c-1.35-.25-2.8-.38-4.33-.38h-6.65v37.45h6.65Z"/>
    <path class="cls-1" d="M751.87,293.27h2.36v41.98h-6.42v-41.98h4.06Z"/>
    <path class="cls-1" d="M804.57,332.96c2.24-.35,4.32-1.14,6.24-2.36l1.88,1.94c-3.61,2.24-7.54,3.36-11.78,3.36-4,0-7.76-.97-11.27-2.91-3.51-1.94-6.32-4.59-8.42-7.95s-3.15-6.99-3.15-10.89,1.05-7.54,3.15-10.89,4.91-6.01,8.42-7.95c3.51-1.94,7.27-2.91,11.27-2.91,4.79,0,9.13,1.41,13.01,4.24l-2.59,2.65c-2-1.61-4.22-2.77-6.65-3.47s-4.89-.86-7.36-.47c-3.18.51-5.87,1.82-8.07,3.92-2.2,2.1-3.7,4.7-4.5,7.8-.81,3.1-.87,6.38-.21,9.83,1.02,5.26,3.41,9.44,7.15,12.54,3.75,3.1,8.04,4.28,12.87,3.53Z"/>
    <path class="cls-1" d="M871.46,333.78l.53,1.47h-6.95l-.29-.71-2.59-6.77-.65-1.53h-22.14l-.65,1.53-2.71,6.77-.29.71h-2.83l.59-1.47,15.43-38.04.94-2.41h5.65l.3.71,15.66,39.75ZM840.43,323.65h20.08l-.53-1.47-9.42-23.96-10.01,25.03-.12.41Z"/>
  </g>
</svg>